<svg preserveAspectRatio="none" overflow="visible" style="display: block;" width="32" height="32" viewBox="0 0 32 32" fill="none" xmlns="http://www.w3.org/2000/svg">
<g id="Vector">
<rect id="touch dim" width="32" height="32" rx="11" fill="#F7F8F9"/>
<path id="Vector_2" fill-rule="evenodd" clip-rule="evenodd" d="M7.20711 5.79289C6.81658 5.40237 6.18342 5.40237 5.79289 5.79289C5.40237 6.18342 5.40237 6.81658 5.79289 7.20711L8.262 9.67621C7.71922 10.78 7.41831 12.0217 7.41831 13.3364V16.8033C7.41831 18.594 7.183 19.7337 6.62613 20.7347C6.48153 20.9946 6.46014 21.3054 6.56776 21.5827C6.67538 21.86 6.90085 22.0749 7.18293 22.1692C8.46968 22.5994 9.86521 22.9245 11.313 23.1456C11.6892 25.4277 13.6062 27 15.9945 27H16.0055C18.3878 27 20.3011 25.4357 20.6841 23.163C20.9912 23.1166 21.2951 23.0655 21.5953 23.0096L24.7929 26.2071C25.1834 26.5976 25.8166 26.5976 26.2071 26.2071C26.5976 25.8166 26.5976 25.1834 26.2071 24.7929L7.20711 5.79289ZM9.41831 13.3364C9.41831 12.5885 9.54695 11.8692 9.78667 11.2009L19.847 21.2612C16.2638 21.7269 12.2436 21.515 8.8786 20.5942C9.27578 19.4842 9.41831 18.267 9.41831 16.8033V13.3364ZM18.548 23.4052C16.8712 23.5349 15.1431 23.5318 13.4475 23.394C13.8405 24.3669 14.779 25 15.9945 25H16.0055C17.2163 25 18.1522 24.3718 18.548 23.4052Z" fill="#555D6D"/>
<path id="Vector_3" d="M10.8606 6.61537L12.2994 8.05417C13.3355 7.38882 14.5985 7 16 7C19.7998 7 22.5817 9.85819 22.5817 13.3364V16.8033C22.5817 17.3727 22.6033 17.9048 22.653 18.4077L25.4994 21.2542C25.5054 21.0748 25.4631 20.8951 25.3739 20.7347C24.817 19.7337 24.5817 18.594 24.5817 16.8033V13.3364C24.5817 8.71776 20.8682 5 16 5C14.0456 5 12.2773 5.59921 10.8606 6.61537Z" fill="#555D6D"/>
</g>
</svg>
